PathFileType	4	(X/Y/Z)	/Users/niels/Desktop/University/Third Semester/Perception and Action/Exam/Gymnastics Motion Tracking/Code for Gym Tracking/Analyzed Data/Webcam_Backflip/id1_3_trajectory_Sports2D/id1_3_trajectory_Sports2D_px_person00.trc
DataRate	CameraRate	NumFrames	NumMarkers	Units	OrigDataRate	OrigDataStartFrame	OrigNumFrames
29.87551867219917	29.87551867219917	9	22	m	29.87551867219917	0	241
Frame#	Time	Hip			RHip			RKnee			RAnkle			RBigToe			RSmallToe			RHeel			LHip			LKnee			LAnkle			LBigToe			LSmallToe			LHeel			Neck			Head			Nose			RShoulder			RElbow			RWrist			LShoulder			LElbow			LWrist		
		X1	Y1	Z1	X2	Y2	Z2	X3	Y3	Z3	X4	Y4	Z4	X5	Y5	Z5	X6	Y6	Z6	X7	Y7	Z7	X8	Y8	Z8	X9	Y9	Z9	X10	Y10	Z10	X11	Y11	Z11	X12	Y12	Z12	X13	Y13	Z13	X14	Y14	Z14	X15	Y15	Z15	X16	Y16	Z16	X17	Y17	Z17	X18	Y18	Z18	X19	Y19	Z19	X20	Y20	Z20	X21	Y21	Z21	X22	Y22	Z22
0	0.0	0.9211523488895565	-0.5974916886921874	0.0	0.9211572295698265	-0.5963221583175038	0.0	0.9246544287342331	-0.6967149668477249	0.0	0.9071430117685799	-0.8087745904593617	0.0	0.9538307258418812	-0.8286207991368542	0.0	0.9456585754680454	-0.8309551629327387	0.0	0.8931367511120648	-0.8251175346032767	0.0	0.9304882926952752	-0.5951570771288399	0.0	0.926986416416928	-0.6955517340312177	0.0	0.910647076026163	-0.8041086794841851	0.0	0.9550005817291249	-0.8251204226815919	0.0	0.9503341298325979	-0.8227886401042501	0.0	0.895475453733888	-0.8192823035645581	0.0	0.9351560039692307	-0.43874490222607526	0.0	0.9620034054180203	-0.373372563734854	0.0	0.9620055808113297	-0.4153992104433361	0.0	0.9094825893398728	-0.45858427200942686	0.0	0.9036480584686353	-0.5297752646785956	0.0	0.9631818588814652	-0.5857958254423122	0.0	0.9386626743796325	-0.46208957354808405	0.0	0.9421716963939792	-0.5356058224243175	0.0	0.9783602864939176	-0.5822958636544407	0.0
1	0.03347222222222222	0.920002571016766	-0.5978756408502172	0.0	0.9191498607793447	-0.5967581825176772	0.0	0.9237588640551195	-0.6971130141316658	0.0	0.9073070951614917	-0.8090203444490986	0.0	0.9538380860667526	-0.8283211477754768	0.0	0.9466674366298387	-0.8310175226066546	0.0	0.8934513152142073	-0.8252368549710166	0.0	0.9294205860099047	-0.5956760937813476	0.0	0.9258993355144068	-0.6958477057316396	0.0	0.910184580423195	-0.8045077754071948	0.0	0.9549604430255483	-0.8252895645182451	0.0	0.9496857221574659	-0.8227001458488163	0.0	0.8944974938077561	-0.8190567596612274	0.0	0.9351761583819611	-0.438457414775235	0.0	0.9640937449716152	-0.37351630673954833	0.0	0.9653473048951571	-0.4161356752082852	0.0	0.910864816558596	-0.45756598881693517	0.0	0.9114081153333417	-0.5294082246389498	0.0	0.9752656539503284	-0.5775394192519997	0.0	0.9375084647860635	-0.4613873412760155	0.0	0.9416025936840826	-0.5330950464920764	0.0	0.985812032813646	-0.5747635923120754	0.0
2	0.06694444444444445	0.9189100364957393	-0.5981650897360196	0.0	0.9172863701800911	-0.5971746490731574	0.0	0.9228360208155223	-0.6974432045601471	0.0	0.9074354560682921	-0.809059676556081	0.0	0.953754799507533	-0.828089614459016	0.0	0.947404834689072	-0.8310748567555343	0.0	0.8938716897823287	-0.8252137917013632	0.0	0.9284965720875032	-0.5961259905508298	0.0	0.9249774027554808	-0.696157656010619	0.0	0.9098929823225278	-0.8046983346259742	0.0	0.9547625942296407	-0.8253663685054573	0.0	0.949080880060414	-0.8224925967833778	0.0	0.893842923328195	-0.8188356474806946	0.0	0.9352476552113059	-0.43821256497125394	0.0	0.9660500321002251	-0.37372671544971425	0.0	0.968489287292048	-0.4168009431824677	0.0	0.9123407734817878	-0.4566660458917079	0.0	0.9195264407843428	-0.5286965464663419	0.0	0.9871002039062892	-0.5690709567061724	0.0	0.9362539526796922	-0.4605786725371353	0.0	0.941643635665529	-0.5304528701978681	0.0	0.9932253718348201	-0.5668189010564064	0.0
3	0.10041666666666667	0.9179113660389435	-0.5982824524150404	0.0	0.9157033279858924	-0.5974880848217234	0.0	0.92193008056171	-0.6976253366698281	0.0	0.9075229419240921	-0.808826934731168	0.0	0.953611269549494	-0.827905364248379	0.0	0.9477673943016379	-0.8310905078561763	0.0	0.8944346613032536	-0.8249951267545529	0.0	0.9277085262667243	-0.5964241640872939	0.0	0.9242917390592855	-0.6964399798734736	0.0	0.9098174817019548	-0.8045952820238246	0.0	0.9543327672738404	-0.8252946388163153	0.0	0.9485424284189723	-0.8221162560479421	0.0	0.8936445026217829	-0.8185922043061249	0.0	0.9353508858382142	-0.43803826324151124	0.0	0.9677051074940173	-0.3739977664061919	0.0	0.9712023225958332	-0.4172824693740312	0.0	0.9139688009621357	-0.4559726929785627	0.0	0.9282324696744438	-0.5273623237769316	0.0	0.9984610651294566	-0.5602246445705569	0.0	0.934763760231331	-0.4596244614781876	0.0	0.9428172383282205	-0.5275740565786512	0.0	1.0006364791088498	-0.5581908685584325	0.0
4	0.1338888888888889	0.9170370684861239	-0.5981888382438709	0.0	0.9145063290231205	-0.5975782313924509	0.0	0.9211124653067906	-0.697599335014138	0.0	0.9075786249226979	-0.8084056593316344	0.0	0.9535372679657996	-0.8276946911689225	0.0	0.9478460168777245	-0.8310082851616103	0.0	0.8950771125793583	-0.8246316961152484	0.0	0.9269263183393671	-0.5964865881198718	0.0	0.9237871189975616	-0.6966196242373599	0.0	0.9098691779365695	-0.8042636247263227	0.0	0.9537257838929054	-0.8250907703415671	0.0	0.948068646447437	-0.8216279744002885	0.0	0.8937972351480441	-0.8182809676074375	0.0	0.9353942043249667	-0.4379423971834622	0.0	0.9688705331547545	-0.37424190942255775	0.0	0.9732910885713296	-0.41748541084264995	0.0	0.9157598993508252	-0.45552207863340705	0.0	0.937528854310591	-0.5252534732164537	0.0	1.009135552427405	-0.5509574837681915	0.0	0.9329207660100564	-0.4585574049335232	0.0	0.9454264723434791	-0.5244184794797812	0.0	1.00805162303558	-0.5489113818435551	0.0
5	0.16736111111111113	0.9163235482509418	-0.5979107429764133	0.0	0.9137365830011975	-0.5973775030265309	0.0	0.920411385350294	-0.6973680019645675	0.0	0.9075889695453522	-0.8079399469452795	0.0	0.9536373920121881	-0.8274207173374674	0.0	0.947803720293855	-0.8307936676524037	0.0	0.8956600033531787	-0.8242089959923201	0.0	0.92603098140666	-0.5962778243222131	0.0	0.9233393297491129	-0.6966644035073667	0.0	0.90991597221307	-0.8038464717986726	0.0	0.953070739153583	-0.8248518896809212	0.0	0.9476400246650291	-0.8211712961770651	0.0	0.8940564534709676	-0.8178695146178723	0.0	0.9353048543921961	-0.43790870025523154	0.0	0.9693778011799457	-0.3743287939164259	0.0	0.9746939668419329	-0.4173961522656727	0.0	0.9176556927453927	-0.45528461388903324	0.0	0.9471802560855532	-0.522346898756053	0.0	1.0189173342681057	-0.5413311008093917	0.0	0.9308167948383004	-0.45747498608717047	0.0	0.9495667687107426	-0.5209917369301896	0.0	1.0153433838340995	-0.5392621911423113	0.0
6	0.20083333333333334	0.9157908769747257	-0.597536616625099	0.0	0.9133493888127491	-0.5969205420608241	0.0	0.9198152336707448	-0.6970133391667677	0.0	0.9075282384976304	-0.8075475672799144	0.0	0.953902704915699	-0.8271170124832194	0.0	0.9477310811783795	-0.8304769962074953	0.0	0.8960431826908221	-0.8238028273694942	0.0	0.9250005172931541	-0.5958474846788494	0.0	0.9228649203436154	-0.6966016319039676	0.0	0.9098728255460887	-0.8034687400674353	0.0	0.9524592239573643	-0.8246897504036512	0.0	0.9472291084487315	-0.8208854067685786	0.0	0.8942086580401563	-0.8173738433227539	0.0	0.9351090941039775	-0.43790064634157055	0.0	0.9691483006693602	-0.3741420819420453	0.0	0.975490012160366	-0.4170588702554846	0.0	0.9195120642175318	-0.4551743878444902	0.0	0.9567510712915396	-0.5187507224588432	0.0	1.0276069450910257	-0.531492525969256	0.0	0.928820497000758	-0.45650706762841886	0.0	0.9551030353750195	-0.5172909912308691	0.0	1.0222288493263527	-0.5295621197116949	0.0
7	0.23430555555555554	0.915407794518668	-0.5971732915825735	0.0	0.9132169853310224	-0.5963046846547632	0.0	0.9193087370476147	-0.696661958410031	0.0	0.9074076562605577	-0.8072872059652575	0.0	0.9542495069096458	-0.8268436337826636	0.0	0.947642070250127	-0.8301426229732249	0.0	0.8961808004265461	-0.8234800837685535	0.0	0.9238873515189847	-0.5952891594738615	0.0	0.9223752877080337	-0.6964617611487801	0.0	0.9097147658203132	-0.8031903383536875	0.0	0.9519167657285624	-0.8246540206820119	0.0	0.946825719169392	-0.8208083639783251	0.0	0.8941668833850496	-0.8168672538058656	0.0	0.9349024624314118	-0.437870070704937	0.0	0.9682538409385257	-0.37364446217018116	0.0	0.975805158020499	-0.4165208778981925	0.0	0.9211713465854992	-0.45509512396749585	0.0	0.9657023965684869	-0.5146802208153853	0.0	1.0350701001416325	-0.52166701475539	0.0	0.9273295565492611	-0.45572512837410634	0.0	0.96154653042326	-0.5132747309969845	0.0	1.0283949426987384	-0.5200138839313074	0.0
8	0.2677777777777778	0.9151048589822042	-0.5968855964268347	0.0	0.9131793315623169	-0.5956194185618988	0.0	0.9188885654592425	-0.6964108498504857	0.0	0.9072765400705777	-0.8071647105599545	0.0	0.9546089237786669	-0.8266208564725711	0.0	0.9475600046625239	-0.8298572057600867	0.0	0.8961568186422285	-0.8232663488754024	0.0	0.9227549412923515	-0.5946673470119291	0.0	0.9219247361779909	-0.6962667884199422	0.0	0.9094488133747987	-0.8030150708147273	0.0	0.9514587435764242	-0.8247258648276117	0.0	0.9464554322235131	-0.8208735066642581	0.0	0.8939358491396827	-0.8164213361488609	0.0	0.9347630327900556	-0.43776812973150087	0.0	0.9669012631066677	-0.372910583549335	0.0	0.9757459900253127	-0.41583504071553584	0.0	0.9225718881012719	-0.45499847967223733	0.0	0.9735368408230591	-0.5103769707348947	0.0	1.0412934138618188	-0.512128253801354	0.0	0.9264972342566623	-0.4551055540147693	0.0	0.9681427624873724	-0.5089177539545314	0.0	1.0336928811063957	-0.510748517433873	0.0
